# xmcd
#
# Track frame offsets: 
#        150
#        13850
#        31615
#        48713
#        69204
#        86477
#        105518
#        125086
#        141907
#        156724
#        179588
#
# Disc length: 2719 seconds
#
# Revision: 0
# Processed by: cddbd v1.5.2PL0 Copyright (c) Steve Scherf et al.
# Submitted via: ExactAudioCopy v0.95a5
#
DISCID=980a9d0b
DTITLE=C.J. Chenier - Can't Sit Down
DYEAR=2011
DGENRE=Blues
TTITLE0=Can;t sit down
TTITLE1=Baby please don't go
TTITLE2=Clap hands
TTITLE3=Ridin with uncvle Cleveland
TTITLE4=Red shack zydeco
TTITLE5=Trouble in mind
TTITLE6=Hot Tamale baby
TTITLE7=Dusty road
TTITLE8=Paper in my shoe
TTITLE9=Zydeco boogie
TTITLE10=We gotta have peace
EXTD=
EXTT0=
EXTT1=
EXTT2=
EXTT3=
EXTT4=
EXTT5=
EXTT6=
EXTT7=
EXTT8=
EXTT9=
EXTT10=
PLAYORDER=
